<svg xmlns="http://www.w3.org/2000/svg" xmlns:xlink="http://www.w3.org/1999/xlink" width="42" height="42" viewBox="0 0 42 42">
    <defs>
        <path id="a" d="M.438 20.424c0 11.116 9.136 20.133 20.417 20.138 11.28 0 20.424-9.016 20.424-20.138C41.279 9.311 32.142.296 20.853.296 9.58.29.438 9.307.438 20.424zM4.539 31.99c-.326-.47-1.657-2.861-2.074-3.906C1.562 25.81.896 23.329.896 20.726.896 9.715 9.839.781 20.893.781c9.875 0 17.837 6.84 19.519 15.993.004.086.029.159 0 .239-.045-.053-.076-.136-.112-.231-1.493-4.587-2.763-6.391-5.215-9.07-3.227-3.532-8.5-6.258-14.105-6.265-10.719 0-19.418 8.67-19.418 19.354 0 3.177.694 5.921 1.254 7.297.655 1.598 1.788 3.749 1.844 3.849a.567.567 0 0 1 .061.256c-.08-.062-.114-.113-.182-.213zM20.74 2.298c.03-.212.174-.212.174 0l.096 17.796 2.904-1.698-2.779-16.1c9.939.267 18.175 8.255 18.175 18.128 0 3.184-.966 6.509-2.429 9.113L24.15 18.964l-1.226.698 13.683 9.895c.331.232.23.337-.121.143l-15.37-8.834v3.31l15.406 5.867c-3.228 5.248-9.052 8.605-15.72 8.605-6.682 0-12.411-3.356-15.64-8.612l15.432-5.869v-3.313L4.612 30.055c-.379.21-.48.095-.135-.151l14.308-10.251-1.223-.697L4.817 29.519c-1.43-2.586-2.426-5.905-2.426-9.064 0-9.998 7.986-18.094 18.1-18.157l-2.608 16.171 1.218.706L20.74 2.298zm16.209 27.913c.258-.074.34-.184.254-.408 1.532-2.692 2.573-6.074 2.573-9.379 0-2.08-.306-3.775-.793-5.288a20.754 20.754 0 0 0-1.096-2.723.475.475 0 0 1-.07-.258.583.583 0 0 1 .181.22c.297.54.962 1.861 1.273 2.72.419 1.152 1.17 2.737 1.17 5.329 0 10.596-8.702 19.377-19.588 19.372-7.672 0-13.69-3.978-16.558-9.44l.441-.161c.745 1.21 1.718 2.275 3.026 3.713 1.61 1.767 6.707 5.173 13.085 5.173 6.789.001 12.754-3.509 16.102-8.87zM2.425 25.165c-.005-.091-.021-.164.011-.245.048.06.072.131.112.239.463 1.426.867 2.71 1.923 4.64l-.364.283c-.675-1.395-1.386-3.36-1.682-4.917z"/>
    </defs>
    <g fill="none" fill-rule="evenodd">
        <path fill="rgb(255,255,255)" d="M40.411 17.156c-.045-.053-.075-.136-.11-.231-1.494-4.587-2.765-6.391-5.216-9.071-3.227-3.531-8.5-6.258-14.106-6.264-10.719 0-19.417 8.67-19.417 19.353 0 3.178.694 5.92 1.254 7.297.655 1.599 1.788 3.75 1.844 3.85a.566.566 0 0 1 .061.255c-.08-.061-.114-.112-.183-.212-.325-.47-1.657-2.861-2.073-3.906-.903-2.274-1.569-4.755-1.569-7.358C.896 9.858 9.84.924 20.893.924c9.875 0 17.837 6.839 19.518 15.993.005.086.03.159 0 .239zM4.107 30.225c-.675-1.395-1.386-3.361-1.682-4.917-.005-.091-.02-.165.011-.246.048.06.072.132.112.24.463 1.425.867 2.709 1.923 4.639l-.364.284zm.37-.178l14.308-10.251-1.223-.697L4.817 29.662c-1.43-2.586-2.426-5.905-2.426-9.065 0-9.998 7.986-18.093 18.1-18.156l-2.609 16.17 1.218.707L20.74 2.44c.03-.213.174-.213.174 0l.096 17.796 2.903-1.698-2.778-16.101c9.94.268 18.175 8.256 18.175 18.129 0 3.184-.966 6.509-2.429 9.112L24.15 19.106l-1.226.698 13.684 9.895c.33.232.23.338-.122.144l-15.369-8.834v3.309l15.406 5.867c-3.229 5.249-9.053 8.606-15.72 8.606-6.682 0-12.412-3.356-15.64-8.612l15.431-5.87v-3.312l-15.98 9.2c-.38.21-.482.096-.136-.15zm16.376 9.89c-7.672 0-13.69-3.976-16.559-9.438l.441-.161c.745 1.21 1.718 2.275 3.027 3.713 1.61 1.766 6.707 5.173 13.085 5.173 6.79 0 12.754-3.51 16.101-8.871.258-.073.34-.183.255-.407 1.532-2.692 2.573-6.074 2.573-9.38 0-2.08-.306-3.774-.793-5.287a20.754 20.754 0 0 0-1.096-2.723.475.475 0 0 1-.07-.258.606.606 0 0 1 .181.219c.296.54.961 1.862 1.272 2.72.42 1.152 1.171 2.738 1.171 5.33 0 10.596-8.702 19.377-19.588 19.37zm0-39.5C9.58.433.438 9.45.438 20.568c0 11.116 9.136 20.133 20.416 20.138 11.281 0 20.425-9.017 20.425-20.138 0-11.113-9.138-20.13-20.426-20.13z"/>
        <g transform="translate(0 .142)">
            <mask id="b" fill="#fff">
                <use xlink:href="#a"/>
            </mask>
            <path fill="rgb(255,255,255)" d="M-1 42h43.718V-1.143H-1z" mask="url(#b)"/>
        </g>
    </g>
</svg>
