<svg xmlns="http://www.w3.org/2000/svg" xmlns:xlink="http://www.w3.org/1999/xlink" width="46" height="37" viewBox="0 0 46 37">
    <defs>
        <path id="a" d="M0 .542h45.7V37H0z"/>
    </defs>
    <g fill="none" fill-rule="evenodd">
        <g>
            <mask id="b" fill="#fff">
                <use xlink:href="#a"/>
            </mask>
            <path fill="#575859" d="M22.836 35.53c0-.02 0-.04.002-.058 3.341-.006 6.68-.077 10.007-.388 1.31-.121 2.613-.302 3.885-.653 2.18-.604 3.733-1.891 4.583-3.976.57-1.398.922-2.85 1.145-4.332.21-1.399.389-2.802.534-4.208.135-1.318.24-2.641.303-3.964a62.54 62.54 0 0 0-.035-6.632c-.065-1.125-.147-2.248-.419-3.348-.402-1.631-1.219-2.986-2.7-3.895-.778-.48-1.626-.795-2.513-1.01-1.595-.384-3.223-.576-4.856-.686-2.416-.164-4.836-.326-7.255-.37-4.847-.087-9.692-.003-14.513.561-1.223.143-2.442.309-3.625.663-2.365.706-3.916 2.18-4.51 4.569-.279 1.127-.379 2.277-.442 3.427-.153 2.836-.151 5.67.066 8.504.157 2.068.342 4.133.68 6.182.243 1.457.547 2.901 1.098 4.282.388.974.89 1.88 1.67 2.612 1.035.972 2.306 1.481 3.676 1.787 1.739.387 3.51.564 5.285.647 2.644.122 5.289.192 7.934.285M22.73 37a140.723 140.723 0 0 1-8.428-.246c-1.51-.094-3.017-.207-4.507-.47-1.249-.219-2.474-.526-3.634-1.044-1.773-.793-3.029-2.071-3.788-3.838-.615-1.434-.975-2.93-1.26-4.451-.39-2.09-.604-4.2-.804-6.312a70.83 70.83 0 0 1-.236-9.859c.057-1.283.18-2.56.568-3.8.723-2.316 2.25-3.89 4.534-4.78 1.196-.464 2.447-.726 3.716-.906C11.194.968 13.512.822 15.835.71c4.198-.204 8.4-.22 12.6-.059 2.125.08 4.25.237 6.37.408 1.688.134 3.364.376 4.985.89 1.338.423 2.553 1.051 3.532 2.064 1.06 1.093 1.642 2.42 1.958 3.877.214.985.29 1.986.321 2.987.054 1.825.13 3.654.084 5.478-.044 1.776-.203 3.551-.36 5.322a63.958 63.958 0 0 1-.473 3.905c-.281 1.852-.627 3.69-1.325 5.452-.69 1.738-1.794 3.106-3.482 3.992-1.02.535-2.117.855-3.24 1.095-1.633.35-3.289.514-4.952.622-2.95.194-5.904.252-9.123.257" mask="url(#b)"/>
        </g>
        <path fill="#575859" d="M33.884 34.71c-.738.065-1.453.14-2.168.188-.704.046-1.408.06-2.112.1-.158.007-.222-.036-.266-.198-.456-1.678-.908-3.358-1.395-5.026-.157-.536-.394-1.051-.63-1.559-.415-.889-1.117-1.427-2.081-1.61-1.808-.344-3.616-.313-5.422 0-.982.17-1.675.737-2.11 1.635-.512 1.06-.843 2.184-1.153 3.313a173.547 173.547 0 0 0-.833 3.177c-.05.199-.115.284-.34.268-1.329-.095-2.66-.174-3.99-.262-.082-.005-.163-.025-.27-.044C10.273 24.562 9.653 14.415 9 4.207L12.087 4c.027.09.047.146.06.204.901 4.16 1.82 8.315 2.861 12.442.318 1.257.637 2.513 1.122 3.719.391.976.925 1.844 1.799 2.466.687.49 1.46.757 2.285.857 1.557.19 3.116.203 4.67-.023 1.787-.259 3.036-1.239 3.776-2.887.553-1.232.894-2.533 1.236-3.833 1.104-4.197 2.022-8.44 2.943-12.68l.062-.263c1.026.066 2.051.134 3.099.203-.65 10.19-1.27 20.338-2.116 30.506"/>
    </g>
</svg>
