<svg xmlns="http://www.w3.org/2000/svg" xmlns:xlink="http://www.w3.org/1999/xlink" width="56" height="29" viewBox="0 0 56 29">
    <defs>
        <path id="a" d="M0 .928h55.5V28H0z"/>
    </defs>
    <g fill="none" fill-rule="evenodd">
        <g transform="translate(0 .072)">
            <mask id="b" fill="#fff">
                <use xlink:href="#a"/>
            </mask>
            <path fill="rgb(255,255,255)" d="M27.75 25.163c-14.263 0-25.825-4.767-25.825-10.647S13.487 3.87 27.75 3.87c14.263 0 25.824 4.767 25.824 10.647S42.013 25.163 27.75 25.163m0-24.235C12.423.928 0 6.988 0 14.464 0 21.94 12.423 28 27.75 28c15.327 0 27.75-6.06 27.75-13.536S43.076.928 27.75.928" mask="url(#b)"/>
        </g>
        <path fill="rgb(255,255,255)" d="M33.644 21.043h3.624l2.94-8.376 2.836 8.376h3.511L42.248 8.152H37.04v.938h.736l-4.132 11.953zM25.47 8.152h4.655v12.89h-3.623V9.09H25.44l.03-.938zm-15.273 0h4.306v4.734l3.831-4.734H22.3l-4.173 6.099 4.866 6.792H18.8l-4.297-5.436v5.436H10.87V9.09h-.67l-.003-.938z"/>
    </g>
</svg>
